<?xml version="1.0" encoding="UTF-8" standalone="no"?>
<svg
   xmlns:dc="http://purl.org/dc/elements/1.1/"
   xmlns:cc="http://creativecommons.org/ns#"
   xmlns:rdf="http://www.w3.org/1999/02/22-rdf-syntax-ns#"
   xmlns:svg="http://www.w3.org/2000/svg"
   xmlns="http://www.w3.org/2000/svg"
   xmlns:sodipodi="http://sodipodi.sourceforge.net/DTD/sodipodi-0.dtd"
   xmlns:inkscape="http://www.inkscape.org/namespaces/inkscape"
   version="1.0"
   width="28"
   height="28"
   viewBox="0 0 21.000001 21.000001"
   preserveAspectRatio="xMidYMid meet"
   id="svg1424"
   sodipodi:docname="karate-activitybar.svg"
   inkscape:version="1.0 (4035a4fb49, 2020-05-01)">
  <metadata
     id="metadata1430">
    <rdf:RDF>
      <cc:Work
         rdf:about="">
        <dc:format>image/svg+xml</dc:format>
        <dc:type
           rdf:resource="http://purl.org/dc/dcmitype/StillImage" />
        <dc:title></dc:title>
      </cc:Work>
    </rdf:RDF>
  </metadata>
  <defs
     id="defs1428" />
  <sodipodi:namedview
     inkscape:document-rotation="0"
     pagecolor="#ffffff"
     bordercolor="#666666"
     borderopacity="1"
     objecttolerance="10"
     gridtolerance="10"
     guidetolerance="10"
     inkscape:pageopacity="0"
     inkscape:pageshadow="2"
     inkscape:window-width="1920"
     inkscape:window-height="1027"
     id="namedview1426"
     showgrid="false"
     inkscape:zoom="10.12"
     inkscape:cx="21.571577"
     inkscape:cy="21.107981"
     inkscape:window-x="1"
     inkscape:window-y="-8"
     inkscape:window-maximized="1"
     inkscape:current-layer="svg1424"
     fit-margin-top="1"
     fit-margin-left="1"
     fit-margin-right="1"
     fit-margin-bottom="1"
     units="px" />
  <path
     style="opacity:0.7;fill:#3a3a3a;stroke:#000000;stroke-width:0.0283966;stroke-linejoin:round"
     d="M 11.669511,20.23279 C 10.852991,19.979909 8.8421948,19.040302 8.1698469,18.597464 7.994199,18.481776 7.5428379,18.140128 7.1668215,17.838247 6.0809,16.966426 5.6852015,16.684481 5.2624646,16.481343 5.1417783,16.423353 4.9920776,16.37037 4.9297961,16.363609 c -0.103698,-0.01125 -0.1214162,-0.0037 -0.2102904,0.08975 -0.053375,0.05612 -0.4654783,0.587068 -0.9157781,1.179882 -0.8837219,1.163408 -1.1747298,1.535814 -1.2457567,1.594209 -0.040012,0.0329 -0.055046,0.02816 -0.1267257,-0.03992 C 2.181233,18.950066 0.88765472,17.189324 0.84844922,17.03312 0.81671972,16.906699 1.459744,15.260564 1.9083166,14.319867 2.5000732,13.078905 2.6409087,12.615145 2.538273,12.245468 2.5222365,12.187711 2.4397156,11.99011 2.3548891,11.806347 2.2700636,11.622584 2.1746086,11.3884 2.1427686,11.285938 2.0691231,11.048938 2.044473,10.754556 2.0873882,10.624522 2.1576722,10.411553 2.4282616,10.046756 3.166155,9.1701729 3.9576133,8.2299555 4.3546638,7.6029129 4.7249611,6.7084317 4.8158503,6.4888714 4.9830909,6.1056381 5.0965965,5.8568025 5.2101021,5.6079668 5.3807821,5.2307219 5.4758852,5.0184797 5.5709873,4.8062384 5.8672352,4.1655208 6.1342134,3.5946618 6.7438831,2.2910511 6.9490551,1.8447024 6.9723541,1.7712928 6.985577,1.7296368 6.9724646,1.6936172 6.9255073,1.6427312 6.7642719,1.467971 6.8090005,1.4108143 7.101822,1.4174257 7.3962582,1.4241157 8.7322149,1.601467 8.8796861,1.653499 9.0145174,1.70107 9.4823809,2.0498484 9.8521849,2.3784656 c 0.6381281,0.567061 1.0525521,1.0528362 1.2614571,1.4786429 0.19215,0.3916574 0.191494,0.3538977 0.01856,1.066907 -0.214299,0.8835807 -0.822898,2.2364293 -1.7904711,3.9800233 -0.4685097,0.8442693 -0.9043664,1.7483942 -0.9348953,1.9393132 -0.015433,0.09651 -0.00771,0.114394 0.098972,0.230169 l 0.1157055,0.125526 0.1733682,-0.0133 c 0.095353,-0.0073 0.2401998,-0.03876 0.3218803,-0.06989 0.2186413,-0.0833 0.8349873,-0.450772 1.2718794,-0.758305 0.210357,-0.148071 0.53371,-0.3759477 0.718562,-0.5063924 0.419892,-0.2963054 1.062159,-0.809586 1.721983,-1.3761605 0.279205,-0.2397448 0.656166,-0.5616483 0.83769,-0.7153419 1.051055,-0.8898987 1.708982,-1.5475239 1.92497,-1.9240826 0.117468,-0.2047978 0.116613,-0.2092216 -0.07734,-0.4003331 l -0.175791,-0.1732178 0.0447,-0.086441 c 0.05505,-0.1064484 0.472225,-0.5408723 0.806095,-0.8394203 0.541222,-0.4839598 1.45428,-0.9415025 2.279728,-1.1423957 0.146374,-0.03562 0.316904,-0.064787 0.378956,-0.064805 0.142316,-5.48e-5 0.331045,0.071175 0.54518,0.2057375 0.09185,0.05772 0.292762,0.1742485 0.446456,0.2589478 0.335548,0.1849207 0.479041,0.2937129 0.479041,0.3631965 0,0.092653 -0.184468,0.420953 -0.496968,0.8844739 -0.546639,0.8108109 -0.981008,1.3144965 -2.055976,2.3840703 -1.26178,1.2554473 -2.845541,2.637222 -4.713673,4.1125093 -1.338861,1.057316 -1.982328,1.578523 -2.177492,1.763768 -0.169319,0.160712 -0.193292,0.194642 -0.176413,0.249667 0.0354,0.1154 0.207377,0.403679 0.370677,0.621345 0.190261,0.253602 0.850029,0.923209 1.132753,1.149647 0.281046,0.225094 1.377732,0.97868 2.009314,1.380697 1.300156,0.827581 2.254677,1.485041 2.442398,1.682286 l 0.0738,0.07755 -0.06572,0.07091 c -0.07448,0.08037 -1.758494,1.204596 -1.917219,1.279916 l -0.10337,0.04905 -0.168878,-0.08327 c -0.09288,-0.04581 -0.185103,-0.08328 -0.204932,-0.08328 -0.01983,0 -0.447746,0.175536 -0.950927,0.390081 l -0.914873,0.39008 -0.266132,0.0091 c -0.220899,0.0076 -0.300062,-0.0014 -0.465736,-0.05269 z"
     id="path1993" />
  <path
     transform="scale(0.75000004)"
     id="path830"
     d="m 14.703988,26.580615 c -0.48913,-0.194498 -1.465506,-0.6437 -2.169723,-0.998229 -1.577302,-0.794071 -1.615814,-0.815876 -1.925182,-1.090018 -0.137996,-0.122282 -0.277902,-0.222332 -0.310902,-0.222332 -0.033,0 -0.156152,-0.07782 -0.273669,-0.172925 C 9.9069946,24.002003 9.6950314,23.835254 9.5534827,23.726558 9.4119339,23.617862 9.2246,23.451113 9.137185,23.356005 9.0497701,23.260896 8.9313137,23.18308 8.8739485,23.18308 8.8165834,23.18308 8.6961956,23.105264 8.60642,23.010155 8.0178214,22.386591 6.6299011,21.629279 6.3700371,21.789884 6.2706056,21.851336 5.8349983,22.388353 5.5636719,22.783971 5.4821501,22.902838 5.2953904,23.135716 5.1486504,23.301479 5.0019104,23.467243 4.758699,23.78633 4.6081808,24.010562 4.3478925,24.398323 3.8577919,25.014911 3.5238337,25.374763 3.325759,25.588195 3.1457377,25.514547 2.9021589,25.120428 2.7948228,24.946755 2.6160574,24.699797 2.5049024,24.571635 2.3937474,24.443472 2.3028023,24.311611 2.3028023,24.27861 c 0,-0.033 -0.1088382,-0.177377 -0.2418628,-0.320838 C 1.9279149,23.81431 1.6797426,23.470487 1.5094456,23.193719 1.1802336,22.658682 1.1728499,22.390325 1.4715856,21.817728 1.5476506,21.671933 1.6101589,21.496458 1.6104937,21.427786 1.6111123,21.300893 1.6508437,21.208 1.946984,20.64106 2.038544,20.465774 2.112179,20.299305 2.1106176,20.271127 2.1075576,20.215997 2.2971337,19.772369 2.6608612,18.983475 3.2619811,17.679697 3.3972853,17.325712 3.4547438,16.906507 3.4933564,16.624796 3.470222,16.35326 3.393453,16.187114 3.0504618,15.444804 2.9923124,15.292144 2.8870296,14.857595 2.7652327,14.354884 2.8478835,14.000577 3.1783866,13.608606 3.2674674,13.502957 3.4252975,13.300541 3.52912,13.158792 3.6329425,13.017044 3.8108081,12.796771 3.9243769,12.669297 4.2816999,12.268224 4.6195393,11.851189 4.773158,11.621546 4.8546798,11.49968 4.9738998,11.344959 5.0380914,11.277721 5.3332818,10.968525 5.9550886,9.8905625 6.2990906,9.0916571 6.9903281,7.4863371 7.478376,6.4195002 7.9217056,5.5447399 8.1145104,5.1643051 8.2592997,4.8399409 8.2434597,4.8239306 8.2152413,4.795409 8.613183,3.940485 9.0963803,2.9915458 9.2668879,2.65669 9.3222334,2.4254925 9.2811089,2.21987 l -0.058716,-0.2935806 0.7151059,0.067552 c 1.4444292,0.136447 1.7728992,0.2171905 2.3132962,0.5686468 0.853232,0.5549133 2.206157,1.8749291 2.206157,2.1524916 0,0.048759 0.03335,0.08882 0.07411,0.089024 0.04076,2.075e-4 0.155498,0.1982871 0.254972,0.4401851 0.160954,0.3914089 0.167069,0.5028415 0.05556,1.0124755 -0.06892,0.3149634 -0.12946,0.594894 -0.134541,0.6220679 -0.08441,0.4513625 -1.92793,4.4537467 -2.208886,4.7956037 -0.107545,0.130856 -1.252087,2.445777 -1.252424,2.533118 -9.9e-5,0.03623 -0.0336,0.09923 -0.07436,0.139986 -0.120151,0.120152 -0.08727,0.218846 0.145024,0.435258 0.16619,0.154829 0.301302,0.191097 0.559217,0.150107 0.361899,-0.05752 1.494376,-0.63697 1.494376,-0.764628 0,-0.0418 0.0667,-0.07601 0.148221,-0.07601 0.08152,0 0.148222,-0.04447 0.148222,-0.09882 0,-0.05435 0.06299,-0.09881 0.139987,-0.09881 0.07699,0 0.154808,-0.03415 0.172925,-0.0759 0.01811,-0.04174 0.261537,-0.221133 0.540937,-0.398644 0.279401,-0.177511 0.623164,-0.429477 0.763917,-0.559923 0.140755,-0.130447 0.422052,-0.362372 0.625104,-0.515389 0.203053,-0.153015 0.438817,-0.344911 0.523922,-0.426432 0.0851,-0.08152 0.327233,-0.281621 0.538065,-0.444664 0.210832,-0.163044 0.505079,-0.407609 0.653882,-0.543479 0.148803,-0.135869 0.506141,-0.447134 0.794085,-0.691699 0.913309,-0.7757203 2.434523,-2.3312961 2.50887,-2.5655416 0.05469,-0.1723188 0.01081,-0.282056 -0.185638,-0.4642107 L 20.485234,6.9701176 21.154816,6.3068358 c 1.162218,-1.1512827 2.336338,-1.7893921 3.781997,-2.0554344 0.315561,-0.058072 1.42089,0.4433611 1.896454,0.8603276 0.176148,0.1544436 0.17631,0.1729057 0.0048,0.5434783 -0.09765,0.2109821 -0.210899,0.3984259 -0.25166,0.4165418 -0.04076,0.018116 -0.07411,0.095932 -0.07411,0.1729249 0,0.076993 -0.03488,0.1399868 -0.07751,0.1399868 -0.04263,0 -0.162418,0.1445159 -0.266195,0.3211463 -0.103777,0.1766304 -0.235646,0.3720804 -0.293045,0.4343333 -0.0574,0.062253 -0.215524,0.2621637 -0.351394,0.4442463 -0.513645,0.6883507 -4.661068,4.7109743 -5.282274,5.1233263 -0.123688,0.0821 -0.330885,0.24649 -0.460437,0.365302 -0.453677,0.416067 -0.764106,0.681719 -1.075471,0.920341 -0.172691,0.132348 -0.419466,0.331005 -0.548387,0.441463 -0.128921,0.110456 -0.351606,0.289763 -0.494854,0.398458 -0.143248,0.108696 -0.3652,0.286562 -0.493226,0.395257 -0.128026,0.108696 -0.347796,0.286562 -0.488379,0.395257 -0.140583,0.108696 -0.365476,0.286562 -0.499763,0.395257 -0.134287,0.108696 -0.358201,0.286561 -0.497586,0.395257 -0.525025,0.409424 -0.867425,0.701544 -1.185894,1.011744 l -0.328573,0.320044 0.217936,0.411923 c 0.214616,0.405647 1.695631,1.969019 2.139302,2.258265 0.125045,0.08152 0.28543,0.203805 0.356411,0.27174 0.07098,0.06793 0.176698,0.123517 0.234927,0.123517 0.05823,0 0.105873,0.04447 0.105873,0.09882 0,0.05435 0.0667,0.09881 0.148221,0.09881 0.08152,0 0.148222,0.04447 0.148222,0.09881 0,0.05435 0.04633,0.09881 0.102945,0.09881 0.05662,0 0.190771,0.08182 0.298111,0.181823 0.107341,0.100003 0.316697,0.244519 0.465236,0.321147 0.14854,0.07663 0.356272,0.217139 0.461629,0.312248 0.105356,0.09511 0.249872,0.172925 0.321146,0.172925 0.07127,0 0.129589,0.04447 0.129589,0.09881 0,0.05435 0.05138,0.09881 0.11419,0.09881 0.06281,0 0.259937,0.111166 0.438072,0.247036 0.178134,0.135869 0.367607,0.247035 0.421052,0.247035 0.05345,0 0.111995,0.03335 0.130112,0.07411 0.01811,0.04076 0.233036,0.20751 0.477601,0.370553 0.244566,0.163044 0.499068,0.34767 0.565562,0.410282 0.06649,0.06261 0.280409,0.212423 0.475368,0.332914 0.353321,0.218364 0.353824,0.219679 0.154974,0.404936 -0.109724,0.102223 -0.242118,0.18586 -0.294209,0.18586 -0.05209,0 -0.109534,0.03792 -0.12765,0.08427 -0.01812,0.04635 -0.512691,0.384519 -1.099055,0.751494 -0.994852,0.622626 -1.084958,0.659424 -1.347961,0.550484 -0.191299,-0.07924 -0.340845,-0.08554 -0.465503,-0.0196 -0.101013,0.05343 -0.539391,0.238717 -0.974174,0.411753 -0.434782,0.173037 -0.832757,0.355049 -0.884387,0.404472 -0.22833,0.218565 -1.281617,0.08923 -2.178854,-0.267547 z"
     style="opacity:0.7;fill:#c5c5c5;stroke:#000000;stroke-width:0.105435;stroke-linejoin:round" />
</svg>
